<svg width="36" height="36" viewBox="0 0 36 36" fill="none" xmlns="http://www.w3.org/2000/svg">
<path d="M10.08 2.87297C6.11184 2.87297 2.88 6.10481 2.88 10.073V25.913C2.88 29.8811 6.11184 33.113 10.08 33.113H25.92C29.8882 33.113 33.12 29.8811 33.12 25.913V10.073C33.12 6.10481 29.8882 2.87297 25.92 2.87297H10.08ZM10.08 4.31297H25.92C29.1101 4.31297 31.68 6.88289 31.68 10.073V25.913C31.68 29.103 29.1101 31.673 25.92 31.673H10.08C6.88993 31.673 4.32 29.103 4.32 25.913V10.073C4.32 6.88289 6.88993 4.31297 10.08 4.31297ZM16.252 8.56266C15.9753 8.54495 15.6895 8.60606 15.4322 8.75672C14.746 9.1592 14.5164 10.0421 14.9189 10.7283L16.2225 12.953L11.9995 20.16H8.64C7.84512 20.16 7.2 20.8051 7.2 21.6C7.2 22.3949 7.84512 23.04 8.64 23.04H19.7367C19.8498 22.4906 19.7807 21.8949 19.4639 21.3441L19.4611 21.3413C19.1825 20.856 18.7959 20.4595 18.3459 20.16H15.338L20.8645 10.7269C21.2663 10.0407 21.036 9.15848 20.3498 8.75672C19.663 8.35496 18.7815 8.58525 18.3797 9.27141L17.8917 10.1039L17.4038 9.27141C17.1522 8.84256 16.7133 8.59217 16.252 8.56266ZM20.3836 14.3578L19.7888 15.3464C19.1321 16.4379 19.1109 17.7889 19.7114 18.9042L24.2452 26.6414C24.513 27.0993 24.9936 27.353 25.4883 27.353C25.7352 27.353 25.9864 27.29 26.2153 27.1561C26.9015 26.7543 27.1311 25.8721 26.7286 25.1859L25.4714 23.04H27.36C28.1549 23.04 28.8 22.3949 28.8 21.6C28.8 20.8051 28.1549 20.16 27.36 20.16H23.7839L20.3836 14.3578ZM10.53 24.4828C10.129 24.4713 9.73924 24.5335 9.36844 24.6502L9.04782 25.1958C8.64534 25.8812 8.87634 26.7642 9.5625 27.1659C9.79146 27.3006 10.0412 27.3642 10.2881 27.3642C10.7828 27.3642 11.2641 27.1084 11.5327 26.6513L12.3075 25.3294C11.8863 24.8376 11.2708 24.5044 10.5342 24.4828H10.53Z" fill="white"/>
</svg>
