<svg width="30" height="32" viewBox="0 0 30 32" fill="none" xmlns="http://www.w3.org/2000/svg">
<path d="M14.41 16L0.4825 29.9275C0.325 29.5975 0.25 29.2375 0.25 28.8625V3.1375C0.25 2.7625 0.325 2.4025 0.4825 2.0725L14.41 16ZM16 17.59L20.6575 22.2475L4.12 31.1725C3.73 31.3825 3.3025 31.4875 2.875 31.4875C2.6425 31.4875 2.4175 31.4575 2.1925 31.3975L16 17.59ZM16 14.41L2.2 0.61C2.8375 0.43 3.52 0.505 4.12 0.8275L20.6575 9.7525L16 14.41ZM29.3425 16C29.3425 16.9675 28.81 17.8525 27.9625 18.31L22.7275 21.1375L17.59 16L22.7275 10.8625L27.9625 13.69C28.81 14.1475 29.3425 15.0325 29.3425 16Z" fill="white"/>
</svg>
