<svg width="1283" height="239" viewBox="0 0 1283 239" fill="none" xmlns="http://www.w3.org/2000/svg">
<path d="M0 133.943L35.6834 130.2C71.2332 126.322 142.6 118.835 213.833 111.214C285.067 103.593 356.433 96.1052 427.667 78.7237C498.9 61.3422 570.267 34.0667 641.5 18.557C712.733 2.91369 784.1 -1.09743 855.333 0.239602C926.567 1.57664 997.933 8.26181 1069.17 28.7185C1140.4 49.3088 1211.77 83.537 1247.32 100.785L1283 117.899V238.232H1247.32C1211.77 238.232 1140.4 238.232 1069.17 238.232C997.933 238.232 926.567 238.232 855.333 238.232C784.1 238.232 712.733 238.232 641.5 238.232C570.267 238.232 498.9 238.232 427.667 238.232C356.433 238.232 285.067 238.232 213.833 238.232C142.6 238.232 71.2332 238.232 35.6834 238.232H0V133.943Z" fill="#7A697B"/>
</svg>
