<?xml version="1.0" encoding="utf-8"?>
<!-- Generator: Adobe Illustrator 23.1.0, SVG Export Plug-In . SVG Version: 6.00 Build 0)  -->
<svg version="1.1" id="visual" xmlns="http://www.w3.org/2000/svg" xmlns:xlink="http://www.w3.org/1999/xlink" x="0px" y="0px"
	 viewBox="0 0 1980 1334" style="enable-background:new 0 0 1980 1334;" xml:space="preserve">
<style type="text/css">
	.st0{fill:#CDB3C1;}
	.st1{fill:#A38D9D;}
	.st2{fill:#7A697B;}
	.st3{fill:#52475A;}
	.st4{fill:#E6E6E6;}
	.st5{fill:#FFFFFF;}
	.st6{opacity:0.2;enable-background:new    ;}
	.st7{fill:#3F3D56;}
	.st8{fill:#CCCCCC;}
	.st9{fill:#F2F2F2;}
	.st10{fill:#FFB7B7;}
	.st11{fill:#2F2E41;}
</style>
<g>
	<path class="st0" d="M1980,742v248l-47.2,12.3c-47.1,12.4-141.5,37-235.8,56.9c-94.3,19.8-188.7,34.8-283,17.1
		c-94.3-17.6-188.7-68-282.8-68.8c-94.2-0.8-188.2,47.8-282.4,62.2c-94.1,14.3-188.5-5.7-282.8-16c-94.3-10.4-188.7-11-283-4.4
		C188.7,1056,94.3,1070,47.2,1077L0,1084V720l47.2,7.5C94.3,735,188.7,750,283,740.2c94.3-9.9,188.7-44.5,283-53.4
		c94.3-8.8,188.7,8.2,282.8,15c94.2,6.9,188.2,3.5,282.4-17c94.1-20.5,188.5-58.1,282.8-59c94.3-0.8,188.7,35.2,283,60.7
		s188.7,40.5,235.8,48L1980,742z"/>
	<path class="st1" d="M1980,893v97l-47.2,12.3c-47.1,12.4-141.5,37-235.8,56.9c-94.3,19.8-188.7,34.8-283,17.1
		c-94.3-17.6-188.7-68-282.8-68.8c-94.2-0.8-188.2,47.8-282.4,62.2c-94.1,14.3-188.5-5.7-282.8-16c-94.3-10.4-188.7-11-283-4.4
		C188.7,1056,94.3,1070,47.2,1077L0,1084V866l19.1-7.9l28.1-11.6C94.3,827,188.7,788,283,771.7c94.3-16.4,188.7-10,283,11.6
		c94.3,21.7,188.7,58.7,282.8,75.5c94.2,16.9,188.2,13.5,282.4-4.8c94.1-18.3,188.5-51.7,282.8-55.7s188.7,21.4,283,42
		c94.3,20.7,188.7,36.7,235.8,44.7L1980,893z"/>
	<path class="st2" d="M1980,961v29l-47.2,12.3c-47.1,12.4-141.5,37-235.8,56.9c-94.3,19.8-188.7,34.8-283,17.1
		c-94.3-17.6-188.7-68-282.8-68.8c-94.2-0.8-188.2,47.8-282.4,62.2c-94.1,14.3-188.5-5.7-282.8-16c-94.3-10.4-188.7-11-283-4.4
		C188.7,1056,94.3,1070,47.2,1077L0,1084V849l19.1,9.1l28.1,13.4C94.3,894,188.7,939,283,948s188.7-18,283-31.8
		c94.3-13.9,188.7-14.5,282.8-7c94.2,7.5,188.2,23.1,282.4,37.5c94.1,14.3,188.5,27.3,282.8,22.6c94.3-4.6,188.7-27,283-31.3
		s188.7,9.3,235.8,16.2L1980,961z"/>
	<path class="st3" d="M1980,990v250l-47.2,7c-47.1,7-141.5,21-235.8,27.7c-94.3,6.6-188.7,6-283-4.4c-94.3-10.3-188.7-30.3-282.8-16
		c-94.2,14.4-188.2,63-282.4,62.2c-94.1-0.8-188.5-51.2-282.8-68.8c-94.3-17.7-188.7-2.7-283,17.1c-94.3,19.9-188.7,44.5-235.8,56.9
		L0,1334v-250l47.2-7c47.1-7,141.5-21,235.8-27.7c94.3-6.6,188.7-6,283,4.4c94.3,10.3,188.7,30.3,282.8,16
		c94.2-14.4,188.2-63,282.4-62.2c94.1,0.8,188.5,51.2,282.8,68.8c94.3,17.7,188.7,2.7,283-17.1c94.3-19.9,188.7-44.5,235.8-56.9
		L1980,990z"/>
</g>
<g>
	<circle class="st4" cx="412.6" cy="449.4" r="215"/>
	<path class="st5" d="M594.4,415.2c10.9,57.5-6.2,116.8-45.9,159.8c-1.3,1.4-2.7,2.8-4,4.2c-54.2,55.1-137,70.7-207.6,39
		c-1.8-0.8-3.5-1.6-5.3-2.5c-91.9-44.7-130.1-155.5-85.3-247.3c7.9-16.3,18.2-31.3,30.5-44.6c1.3-1.4,2.7-2.8,4-4.2
		c54.2-55.1,137-70.7,207.6-39c1.8,0.8,3.5,1.6,5.3,2.5C546.2,308.6,583.6,357.6,594.4,415.2z"/>
	<circle class="st3" cx="412.6" cy="449.4" r="169"/>
	<path class="st6" d="M381.9,283.6c-2.5,0.5-5,1-7.5,1.6c92.9-9.2,175.6,58.7,184.8,151.6c8.3,84.3-47,161.7-129.5,181.1
		c4.9-0.5,9.8-1.2,14.7-2.1c91.7-17.2,152.1-105.6,134.9-197.3S473.6,266.4,381.9,283.6L381.9,283.6z"/>
	<path class="st5" d="M379.6,271.4c-3,0.6-4.9,3.4-4.4,6.4l4.4,23.6c0.6,3,3.4,5,6.4,4.4c3-0.6,5-3.4,4.4-6.4l-4.4-23.6
		C385.5,272.8,382.6,270.8,379.6,271.4z"/>
	<path class="st5" d="M493.6,283c-1.7-0.9-3.5-1.7-5.3-2.5c-1.9,0.2-3.6,1.5-4.4,3.3l-9.6,22c-1.2,2.8,0.1,6,2.8,7.2
		c2.8,1.2,6-0.1,7.2-2.8l9.6-22C494.8,286.5,494.6,284.6,493.6,283z"/>
	<path class="st5" d="M570.6,360.5c-1.6-2.6-5-3.3-7.6-1.6c0,0,0,0,0,0l-20.2,13c-2.6,1.6-3.3,5-1.6,7.6c1.6,2.6,5,3.3,7.6,1.6l0,0
		l20.2-13C571.5,366.5,572.3,363.1,570.6,360.5z"/>
	<path class="st5" d="M302.9,338L286,321c-1.4-1.4-3.4-1.9-5.3-1.4c-1.4,1.4-2.7,2.8-4,4.2c-0.4,1.8,0.2,3.7,1.5,5l16.9,17
		c2.1,2.2,5.6,2.2,7.8,0C305.1,343.7,305.1,340.2,302.9,338z"/>
	<path class="st5" d="M263.1,424.5l-23.5-4.8c-3-0.6-5.9,1.3-6.5,4.3s1.3,5.9,4.3,6.5l23.5,4.8c3,0.6,5.9-1.3,6.5-4.3
		C268,428,266.1,425.1,263.1,424.5L263.1,424.5z"/>
	<path class="st5" d="M440.1,592.7c-3,0.6-4.9,3.4-4.4,6.4l4.4,23.6c0.6,3,3.4,5,6.4,4.4c3-0.6,5-3.4,4.4-6.4l-4.4-23.6
		C445.9,594.2,443.1,592.2,440.1,592.7z"/>
	<path class="st5" d="M547,569.9l-16.9-17c-2.1-2.2-5.6-2.2-7.8,0s-2.2,5.6,0,7.8l16.9,17c1.4,1.4,3.4,1.9,5.3,1.4
		c1.4-1.4,2.7-2.8,4-4.2C548.9,573.1,548.3,571.2,547,569.9z"/>
	<path class="st5" d="M587.8,468.2l-23.5-4.8c-3-0.6-5.9,1.3-6.5,4.3c-0.6,3,1.3,5.9,4.3,6.5l0,0l23.5,4.8c3,0.6,5.9-1.3,6.5-4.3
		C592.7,471.7,590.8,468.8,587.8,468.2L587.8,468.2L587.8,468.2z"/>
	<path class="st5" d="M348,585.7c-2.8-1.2-6,0.1-7.2,2.8l-9.6,22c-0.7,1.7-0.6,3.7,0.4,5.2c1.7,0.9,3.5,1.7,5.3,2.5
		c1.9-0.2,3.6-1.5,4.4-3.3l9.6-22C352.1,590.1,350.8,586.9,348,585.7C348,585.7,348,585.7,348,585.7z"/>
	<path class="st5" d="M284,519.2c-1.6-2.6-5-3.3-7.6-1.6c0,0,0,0,0,0l-20.2,13c-2.6,1.6-3.3,5-1.6,7.6c1.6,2.6,5,3.3,7.6,1.6
		l20.2-13C284.9,525.2,285.6,521.8,284,519.2z"/>
	<path class="st7" d="M419.6,445.3c2.2,6-0.8,12.6-6.8,14.8L320,494.4c-6,2.2-12.6-0.8-14.8-6.8c-2.2-6,0.8-12.6,6.8-14.8l92.8-34.4
		C410.8,436.3,417.4,439.3,419.6,445.3z"/>
	<path class="st7" d="M540.5,532.5c-2.3,3.4-7,4.3-10.4,2l-122.5-83c-3.4-2.3-4.3-7-2-10.4c2.3-3.4,7-4.3,10.4-2l122.5,83
		C542,524.5,542.9,529.1,540.5,532.5z"/>
	<circle class="st8" cx="412.6" cy="449.4" r="13"/>
	<path class="st4" d="M282.9,244.4c-13.8,34.5-39.9,60.6-74.3,81c-2.6,2.9-7.1,3.1-10,0.4c0,0,0,0,0,0l0,0
		c-25.1-23-27.7-62.1-5.1-87.5c22.8-25.6,62-27.9,87.6-5.1c0.2,0.2,0.4,0.4,0.6,0.6l0.7,0.6C285.4,237,285.6,241.5,282.9,244.4z"/>
	<path class="st4" d="M456.1,201c15.2-30.7,52.4-43.4,83.1-28.2c0.2,0.1,0.5,0.2,0.7,0.4c30.3,15.5,42,52.9,27,83.4l0,0
		c-1.7,3.5-6,4.9-9.4,3.2c0,0,0,0,0,0c-36.7-6.7-69.1-24.1-98.6-48.5c-3.5-1.7-4.9-6-3.2-9.4L456.1,201z"/>
	<path class="st4" d="M525.6,617.6c-2.3,2-2.6,5.4-0.7,7.7l41.7,49.9c2,2.3,5.4,2.6,7.7,0.7c2.3-1.9,2.6-5.4,0.7-7.7l-41.7-49.9
		C531.4,616,527.9,615.7,525.6,617.6z"/>
	<path class="st4" d="M361.5,650.6l-20.7,61.6c-1,2.9,0.6,6,3.5,7c2.9,1,6-0.6,7-3.5l20.7-61.6c1-2.9-0.6-6-3.5-7
		C365.6,646.2,362.5,647.8,361.5,650.6L361.5,650.6L361.5,650.6z"/>
	<circle class="st4" cx="572.4" cy="671.6" r="17"/>
	<circle class="st4" cx="503.8" cy="241.9" r="17"/>
	<circle class="st4" cx="369.7" cy="226.4" r="17"/>
	<circle class="st4" cx="255.8" cy="286.5" r="17"/>
	<circle class="st4" cx="347.4" cy="714" r="17"/>
</g>
<g>
	<path class="st9" d="M840.8,634.9l30.7,1.2c8.8-13.5,14.1-29,15.5-45c-19.9,20.6-54.5,14.9-80.1,27.8
		c-16.1,8.3-27.5,23.5-31.1,41.2L763,677.6c28.2,7.5,58.3,2.3,82.3-14.2c6.6-4.7,12.6-10.1,17.9-16.3
		C851.9,641.8,840.8,634.9,840.8,634.9z"/>
	<path class="st9" d="M824.5,588l28-12.6c1.8-16-0.3-32.2-6.2-47.2c-8.6,27.3-42.1,37.6-59.2,60.6c-10.7,14.6-14.2,33.3-9.4,50.7
		l-3.7,21.4c28.6-5.8,53.2-23.9,67.3-49.4c3.8-7.1,6.8-14.7,8.7-22.5C837.5,589.2,824.5,588,824.5,588z"/>
	<path class="st10" d="M584.9,537c3,3.6,8.3,4.2,12,1.2c0.4-0.3,0.7-0.7,1.1-1l28.1,11.1l-3.2-15.4l-26.2-8.2
		c-3.8-2.8-9.1-2.1-12,1.7C582.2,529.6,582.3,534,584.9,537L584.9,537z"/>
	<path class="st7" d="M604.8,540.2l8.7-15.5l52.8,17.8l60.9-18.9c11.3-3.5,23.4,2.8,26.9,14.1c0.4,1.3,0.7,2.5,0.8,3.8l0,0
		c1.4,11.8-7,22.4-18.8,23.8l-71.3,8.4L604.8,540.2z"/>
	<polygon class="st10" points="617.6,789.6 606.5,785.8 615.8,740.2 632.2,745.9 	"/>
	<path class="st10" d="M687.2,774.4c-0.7,0.6-1.4,1.1-2.1,1.7c-1.4,1.1-2.9,2.2-4.3,3.3c-0.7,0.5-1.5,1.1-2.2,1.6l0,0l0,0l0,0
		l-1.2,0.4l-2.2-4.3l-1-2l-1.5-2.8l-2.7-5.1l-14-27.1l16.2-6.1l0.9,2.5l0,0l0.5,1.2l8.6,23l1.8,4.7l0.1,0.1l1.1,2.8l0.9,2.4l1,2.7
		L687.2,774.4z"/>
	<path class="st11" d="M775.1,663.3c-0.9,1.8-1.7,3.6-2.6,5.4c-1.7,3.4-3.4,6.7-5.2,9.9c0,0,0,0,0,0c-1.1,1.3-2.4,2.5-3.7,3.5
		c-0.1,0.1-0.1,0.1-0.2,0.1c-1,0.7-2.1,1.3-3.3,1.8c-0.4,0.2-0.8,0.3-1.3,0.5c-1.5,0.6-3,1-4.5,1.5c-2.7,0.8-5.3,1.5-8,2
		c-0.2,0-0.4,0.1-0.6,0.1c-10.9,2.1-21.8,2-33.3,1.2c-5.7-0.4-11.5-1-17.5-1.6c-2-0.2-3.9-0.4-5.9-0.6c-0.2,0-0.3,0-0.5,0
		c-2.8-0.3-5.7-0.6-8.7-0.8c-3.7-0.3-7.6-0.6-11.6-0.8l0.9,5.5c0.7,4.2,2.1,8.3,4,12.1c2.2,4.7,4,8.4,2.2,16.7l-0.9,4
		c1.9,3.8,1.9,8.2,0,11.9l-0.2,0.4l14.5,27l0.9,1.8l-5.7,0.7l-7.1,0.8l-12,1.4l-21.3-32.6l-1-1.6l0-0.1l-6-66.7
		c0-0.6-0.1-1.2-0.1-1.8c0-5.5,2.2-10.7,6.1-14.5c3.7-3.7,8.8-5.7,14-5.7l6,0.1l12.2,0.2l8.6,0.1l0.2,0l25.4,0.3l0.9-7.5l0.3-0.2
		l10.1-5.1l34.9-17.6l0.1,0l2.3-1.2l0.3,0.4c0.1,0.1,0.2,0.3,0.3,0.4c2.9,4,5.3,8.2,7.3,12.7c3.3,7.3,6.3,14.8,8.7,22.4
		c0.1,0.3,0.2,0.6,0.3,0.9l0,0.1c0,0.1,0.1,0.2,0.1,0.2C776.3,654.6,776.2,658.9,775.1,663.3z"/>
	<path class="st11" d="M773.8,638.7c-0.2-0.5-0.4-1-0.6-1.4c-1.7-3.5-3.5-7-5.5-10.3c-2.3-3.8-5-7.8-8.1-12.2
		c-1.5-2.1-3.1-4.3-4.9-6.6c-0.9-1.1-1.8-2.3-2.7-3.5c0-0.1-0.1-0.1-0.1-0.2l-0.3-0.3l-35.5,9l-13.2,3.4l0,6.8l0,1.7c0,0,0,0,0,0
		l0,4.6l0,0l0,6.1l-0.1,0l-20.2-0.3l-20.9-0.3l-11.2-0.1c-5.2-0.1-10.3,2-14,5.7c-3.9,3.8-6.1,9-6.1,14.5c0,0.5,0,1.1,0.1,1.7
		l-7.5,25.9c-4.5,15.5-6.7,31.6-6.4,47.7l-4.8,25.3l1.1,0l16.4-0.4l4.3-0.1l7.8-14.8c0.9-1.7,1.7-3.4,2.5-5.2
		c1.2-2.9,2.3-5.8,3.2-8.8l14.7-50.8c1.6,0.1,3.2,0.2,4.8,0.2c7.3,0.3,14.2,0.5,20.9,0.4c21.6-0.1,40.1-2.1,56.4-6
		c4.6-1.1,8.9-2.4,13.1-3.8c1.5-0.5,3.1-1.1,4.6-1.6c0.4-0.1,0.7-0.3,1-0.4c6.3-2.4,10.9-7.9,12.3-14.5
		C775.4,646.2,775.1,642.3,773.8,638.7z"/>
	<path class="st11" d="M620.1,782.1l-12-4.1l-1.9-0.6l-2,7.3l-19.4,6.7c-2.5,0.9-3.8,3.6-2.9,6c0.5,1.5,1.7,2.6,3.2,3l20.3,5.7
		l5.5-6.3l-0.6,7.6l7.7,2.1l5-26.5L620.1,782.1z"/>
	<polygon class="st11" points="688.7,763.2 689.7,764.9 688.9,765 	"/>
	<path class="st11" d="M685,765.9l-11.4,5.5l-1.8,0.9l3.7,6.6l-9.1,18.4c-1.2,2.4-0.2,5.2,2.2,6.4c1.4,0.7,3.1,0.7,4.4-0.1
		l18.4-10.3l-0.5-8.3l4.9,5.9l6.9-3.9l-15-22.3L685,765.9z"/>
	<path class="st7" d="M772.1,650.2c-0.7,0.1-1.4,0-2.1-0.3l-66.7-25.5l-1.1-2.9l-2.5-9.2l0-0.1l2.8-28.3c-0.1-0.2-0.4-0.6-0.7-1
		c-3.2-4.2-12.9-17,0.4-37.8l23.5-34.9l23.2-3.7l0.3,0.3c14.5,14.4,20.9,35.2,16.9,55.3l2.7,44.2l3.6,8.6c2.1,5,2.5,10.6,1.1,15.9
		l2.3,14.3c0.4,2.4-1.3,4.7-3.7,5C772.2,650.2,772.2,650.2,772.1,650.2L772.1,650.2z"/>
	<path class="st10" d="M721.8,692.7c3.7-2.8,4.5-8.2,1.6-11.9c-0.3-0.4-0.6-0.8-1-1.1l12.1-27.7l-15.5,2.7l-9.1,25.9
		c-3,3.7-2.4,9.1,1.3,12C714.3,695.1,718.7,695.2,721.8,692.7z"/>
	<path class="st7" d="M725.7,672.9l-15.2-9.3l19.7-52.1l-16.8-61.5c-3.1-11.4,3.6-23.2,15.1-26.4c1.3-0.3,2.6-0.6,3.9-0.7l0,0
		c11.8-1,22.2,7.8,23.2,19.6l5.9,71.6L725.7,672.9z"/>
	<path id="f4e08e8b-ef08-4d70-8ad3-b81af8a71ff9-53" class="st11" d="M709.3,498.8l-2.7-23.1c-2-17.1,10.2-32.6,27.3-34.6
		c17.1-2,32.6,10.2,34.6,27.3l0,0l0,0c6.8,10.7,4,16.5,2.7,23.1c0.3,2.3-1.4,4.4-3.7,4.6l-53.6,6.2
		C711.6,502.7,709.6,501.1,709.3,498.8z"/>
	
		<ellipse transform="matrix(4.506135e-02 -0.999 0.999 4.506135e-02 219.5462 1181.3909)" class="st10" cx="727.7" cy="475.9" rx="23.3" ry="23.3"/>
	<path class="st11" d="M752.7,479.1c-0.2,0-0.4,0-0.6,0c-3.7-0.2-7.4-0.4-11.1-0.7l-1.3-8.1l-3.5,7.8c-9.6,4.5-19.1,3.7-28.4,0.6
		c-3.1-1-6-2.3-8.9-3.7c0.4-9.3,5-18,12.6-23.5c0.3-0.2,0.6-0.4,0.9-0.6c0,0,0,0,0,0c0,0,0,0,0,0c0.5-0.3,1.1-0.7,1.6-1
		c8.8-4.7,19.4-3.9,27.4,2.1C749.3,457.9,753.7,468.7,752.7,479.1z"/>
</g>
</svg>
