<svg width="1283" height="312" viewBox="0 0 1283 312" fill="none" xmlns="http://www.w3.org/2000/svg">
<path d="M0 56.3622L35.6834 54.0893C71.2332 51.95 142.6 47.4041 213.833 49.9445C285.067 52.3511 356.433 61.7104 427.667 51.6826C498.9 41.6548 570.267 12.24 641.5 6.22334C712.733 0.206674 784.1 17.5882 855.333 18.5241C926.567 19.3263 997.933 3.81666 1069.17 0.607769C1140.4 -2.46742 1211.77 6.89186 1247.32 11.5715L1283 16.2511V311.736H1247.32C1211.77 311.736 1140.4 311.736 1069.17 311.736C997.933 311.736 926.567 311.736 855.333 311.736C784.1 311.736 712.733 311.736 641.5 311.736C570.267 311.736 498.9 311.736 427.667 311.736C356.433 311.736 285.067 311.736 213.833 311.736C142.6 311.736 71.2332 311.736 35.6834 311.736H0V56.3622Z" fill="#A38D9D"/>
</svg>
