<svg width="1280" height="323" viewBox="0 0 1280 323" fill="none" xmlns="http://www.w3.org/2000/svg">
<path d="M0 269.333L21.3333 263.067C42.6667 256.933 85.3333 244.4 128 253.333C170.667 262.267 213.333 292.4 256 294.933C298.667 297.333 341.333 272 384 261.733C426.667 251.6 469.333 256.4 512 264.4C554.667 272.4 597.333 283.6 640 278.667C682.667 273.733 725.333 252.933 768 258.933C810.667 264.933 853.333 297.733 896 312.933C938.667 328 981.333 325.333 1024 307.6C1066.67 289.733 1109.33 256.933 1152 248.4C1194.67 240 1237.33 256 1258.67 264L1280 272V180H1258.67C1237.33 180 1194.67 180 1152 180C1109.33 180 1066.67 180 1024 180C981.333 180 938.667 180 896 180C853.333 180 810.667 180 768 180C725.333 180 682.667 180 640 180C597.333 180 554.667 180 512 180C469.333 180 426.667 180 384 180C341.333 180 298.667 180 256 180C213.333 180 170.667 180 128 180C85.3333 180 42.6667 180 21.3333 180H0V269.333Z" fill="#52475A"/>
<rect width="1280" height="238" fill="#52475A"/>
</svg>
