<svg id="visual" viewBox="0 0 2000 400" width="2000" height="400" xmlns="http://www.w3.org/2000/svg" xmlns:xlink="http://www.w3.org/1999/xlink" version="1.1"><path d="M0 165L37 180.8C74 196.7 148 228.3 222 238C296 247.7 370 235.3 444.2 226C518.3 216.7 592.7 210.3 666.8 196.7C741 183 815 162 889 148.3C963 134.7 1037 128.3 1111 126C1185 123.7 1259 125.3 1333.2 142.2C1407.3 159 1481.7 191 1555.8 190.8C1630 190.7 1704 158.3 1778 166.2C1852 174 1926 222 1963 246L2000 270L2000 0L1963 0C1926 0 1852 0 1778 0C1704 0 1630 0 1555.8 0C1481.7 0 1407.3 0 1333.2 0C1259 0 1185 0 1111 0C1037 0 963 0 889 0C815 0 741 0 666.8 0C592.7 0 518.3 0 444.2 0C370 0 296 0 222 0C148 0 74 0 37 0L0 0Z" fill="#52475A" stroke-linecap="round" stroke-linejoin="miter" preserveAspectRatio="xMidYMid slice" ></path></svg>