<?xml version="1.0" encoding="utf-8"?>
<!-- Generator: Adobe Illustrator 23.1.0, SVG Export Plug-In . SVG Version: 6.00 Build 0)  -->
<svg version="1.1" id="visual" xmlns="http://www.w3.org/2000/svg" xmlns:xlink="http://www.w3.org/1999/xlink" x="0px" y="0px"
	 viewBox="0 0 1920 524.5" style="enable-background:new 0 0 1920 524.5;" xml:space="preserve">
<style type="text/css">
	.st0{fill:#FFFFFF;stroke:#000000;stroke-miterlimit:10;}
	.st1{fill:#52475A;}
</style>
<path class="st0" d="M911,276"/>
<path class="st1" d="M1920,29.8c0,154.9,0,309.9,0,464.8l-45.7-4.7c-54.2-13.1-138.1-34.3-240.4-64.3
	c-156.5-45.8-177.6-59.9-247.7-67.4c-106.2-11.4-113.4,14.8-289.2,22.9c-171.9,7.9-175.8-16.7-285.5,0.9
	c-142.5,22.8-141.1,65.1-262.7,75.4c-112.2,9.5-141-26-274.6-24.1c-91.5,1.3-182.9,22.3-228.5,32.8L0,476.7v-418l45.7,4.7
	c54.6-3.4,137-1.9,228.5,29.1c128.1,43.4,146.2,101.2,243.3,113.2c112.6,13.9,126.4-59.1,278-74c142.5-14,157.7,47.7,307,35
	c38.5-3.3,77.8-14.2,77.8-14.2c80.4-17.8,104.2-32.9,156.4-43.9c67.8-14.2,123.2-8.7,147-6.1c109.7,11.8,131.8,55.1,207.7,57.6
	c41.5,1.4,104-9.2,182.9-73C1889.5,68.1,1904.8,48.9,1920,29.8z"/>
</svg>
