<?xml version="1.0" encoding="utf-8"?>
<!-- Generator: Adobe Illustrator 23.1.0, SVG Export Plug-In . SVG Version: 6.00 Build 0)  -->
<svg version="1.1" id="visual" xmlns="http://www.w3.org/2000/svg" xmlns:xlink="http://www.w3.org/1999/xlink" x="0px" y="0px"
	 viewBox="0 0 1980 556.3" style="enable-background:new 0 0 1980 556.3;" xml:space="preserve" preserveAspectRatio="xMidYMid slice">
<style type="text/css">
	.st0{fill:#52475A;}
	.st1{fill:#706073;}
	.st2{fill:#8E7B8C;}
	.st3{fill:#AD96A6;}
	.st4{fill:#CDB3C1;}
</style>
<path class="st0" d="M0,88.2l36.7,25.7c36.6,25.8,110,77.1,183.3,65.4c73.3-11.8,146.7-86.6,220-107.7c73.3-21,146.7,11.6,220,13.4
	s146.7-27.3,220-39.5s146.7-7.4,220,24.8c73.3,32.3,146.7,92,220,115.1s146.7,9.8,220,10.7c73.3,0.9,146.7,16,220-14.3
	s146.7-106,183.3-143.9L1980,0v556h-36.7c-36.6,0-110,0-183.3,0s-146.7,0-220,0s-146.7,0-220,0s-146.7,0-220,0s-146.7,0-220,0
	s-146.7,0-220,0s-146.7,0-220,0s-146.7,0-220,0s-146.7,0-183.3,0H0V88.2z"/>
<path class="st1" d="M0,295.9l36.7-23.1c36.6-23.2,110-69.3,183.3-97.3s146.7-37.8,220-40.9c73.3-3.2,146.7,0.3,220,19.4
	c73.3,19,146.7,53.8,220,69c73.3,15.2,146.7,10.9,220-1.7c73.3-12.6,146.7-33.6,220-19.4c73.3,14.2,146.7,63.7,220,58.1
	c73.3-5.4,146.7-65.7,220-79.1s146.7,20.2,183.3,37l36.7,16.8V556h-36.7c-36.6,0-110,0-183.3,0s-146.7,0-220,0s-146.7,0-220,0
	s-146.7,0-220,0s-146.7,0-220,0s-146.7,0-220,0s-146.7,0-220,0s-146.7,0-220,0s-146.7,0-183.3,0H0V295.9z"/>
<path class="st2" d="M0,337l36.7-10.1c36.6-10,110-30.2,183.3-22.8c73.3,7.3,146.7,42,220,45.5c73.3,3.4,146.7-24.4,220-47.3
	c73.3-22.9,146.7-40.7,220-54.3c73.3-13.5,146.7-22.6,220-10c73.3,12.5,146.7,46.7,220,66.5c73.3,19.8,146.7,25.3,220,20.3
	s146.7-20.3,220-14.5c73.3,5.8,146.7,32.7,183.3,46.3L1980,370v186h-36.7c-36.6,0-110,0-183.3,0s-146.7,0-220,0s-146.7,0-220,0
	s-146.7,0-220,0s-146.7,0-220,0s-146.7,0-220,0s-146.7,0-220,0s-146.7,0-220,0s-146.7,0-183.3,0H0V337z"/>
<path class="st3" d="M0,443.6l36.7-12c36.6-12,110-36,183.3-46.2c73.3-10.1,146.7-6.5,220,3.2c73.3,9.6,146.7,25.3,220,25
	c73.3-0.4,146.7-16.8,220-29.7c73.3-12.9,146.7-22.1,220-11.2c73.3,10.9,146.7,42,220,48c73.3,6,146.7-13.1,220-14.7
	c73.3-1.5,146.7,14.3,220,13.6s146.7-18.1,183.3-26.8l36.7-8.7V556h-36.7c-36.6,0-110,0-183.3,0s-146.7,0-220,0s-146.7,0-220,0
	s-146.7,0-220,0s-146.7,0-220,0s-146.7,0-220,0s-146.7,0-220,0s-146.7,0-220,0s-146.7,0-183.3,0H0V443.6z"/>
<path class="st4" d="M0,476.5l36.7-6.4c36.6-6.4,110-19.3,183.3-20.3c73.3-1,146.7,9.8,220,14.8s146.7,4.2,220,11.1
	c73.3,6.9,146.7,21.6,220,27.9c73.3,6.4,146.7,4.3,220-1.7s146.7-16,220-25.2c73.3-9.2,146.7-17.5,220-12.7
	c73.3,4.8,146.7,22.7,220,22.4s146.7-18.9,183.3-28.1l36.7-9.3v107h-36.7c-36.6,0-110,0-183.3,0s-146.7,0-220,0s-146.7,0-220,0
	s-146.7,0-220,0s-146.7,0-220,0s-146.7,0-220,0s-146.7,0-220,0s-146.7,0-220,0s-146.7,0-183.3,0H0V476.5z"/>
</svg>
