<svg width="153" height="31" viewBox="0 0 153 31" fill="none" xmlns="http://www.w3.org/2000/svg">
<path opacity="0.7" d="M28.0341 11.8182H20.0227C19.9659 11.1553 19.8144 10.554 19.5682 10.0142C19.3314 9.47443 19 9.01042 18.5739 8.62216C18.1572 8.22443 17.6506 7.9214 17.054 7.71307C16.4574 7.49526 15.7803 7.38636 15.0227 7.38636C13.697 7.38636 12.5748 7.70833 11.6562 8.35227C10.7472 8.99621 10.0559 9.91951 9.58239 11.1222C9.11837 12.3248 8.88636 13.7689 8.88636 15.4545C8.88636 17.2348 9.12311 18.7263 9.59659 19.929C10.0795 21.1222 10.7756 22.0218 11.6847 22.6278C12.5938 23.2244 13.6875 23.5227 14.9659 23.5227C15.6951 23.5227 16.3485 23.4328 16.9261 23.2528C17.5038 23.0634 18.0057 22.7936 18.4318 22.4432C18.858 22.0928 19.2036 21.6714 19.4688 21.179C19.7434 20.6771 19.928 20.1136 20.0227 19.4886L28.0341 19.5455C27.9394 20.7765 27.5938 22.0312 26.9972 23.3097C26.4006 24.5786 25.553 25.7528 24.4545 26.8324C23.3655 27.9025 22.0161 28.7642 20.4062 29.4176C18.7964 30.071 16.9261 30.3977 14.7955 30.3977C12.125 30.3977 9.72917 29.8248 7.60795 28.679C5.49621 27.5331 3.82481 25.8475 2.59375 23.6222C1.37216 21.3968 0.761364 18.6742 0.761364 15.4545C0.761364 12.2159 1.38636 9.48864 2.63636 7.27273C3.88636 5.04735 5.57197 3.36648 7.69318 2.23011C9.81439 1.08428 12.1818 0.511363 14.7955 0.511363C16.6326 0.511363 18.3229 0.762309 19.8665 1.2642C21.41 1.7661 22.7642 2.5 23.929 3.46591C25.0938 4.42235 26.0313 5.60133 26.7415 7.00284C27.4517 8.40436 27.8826 10.0095 28.0341 11.8182ZM31.6172 30V0.90909H39.5149V12.2727H49.9695V0.90909H57.8672V30H49.9695V18.6364H39.5149V30H31.6172ZM69.174 30H60.6513L70.2536 0.90909H81.049L90.6513 30H82.1286L75.7649 8.92045H75.5376L69.174 30ZM67.5831 18.5227H83.6058V24.4318H67.5831V18.5227ZM108.002 10C107.926 9.05303 107.571 8.31439 106.937 7.78409C106.312 7.25379 105.36 6.98864 104.082 6.98864C103.267 6.98864 102.6 7.08807 102.079 7.28693C101.567 7.47633 101.189 7.73674 100.942 8.06818C100.696 8.39962 100.568 8.77841 100.559 9.20455C100.54 9.55492 100.602 9.87216 100.744 10.1562C100.895 10.4309 101.132 10.6818 101.454 10.9091C101.776 11.1269 102.188 11.3258 102.69 11.5057C103.192 11.6856 103.788 11.8466 104.479 11.9886L106.866 12.5C108.476 12.8409 109.853 13.2907 110.999 13.8494C112.145 14.4081 113.083 15.0663 113.812 15.8239C114.541 16.572 115.076 17.4148 115.417 18.3523C115.767 19.2898 115.947 20.3125 115.957 21.4205C115.947 23.3333 115.469 24.9527 114.522 26.2784C113.575 27.6042 112.221 28.6127 110.46 29.304C108.708 29.9953 106.601 30.3409 104.138 30.3409C101.61 30.3409 99.4036 29.9669 97.5192 29.2188C95.6442 28.4706 94.1858 27.3201 93.1442 25.767C92.112 24.2045 91.5911 22.2064 91.5817 19.7727H99.0817C99.129 20.6629 99.3516 21.411 99.7493 22.017C100.147 22.6231 100.706 23.0824 101.425 23.3949C102.155 23.7074 103.021 23.8636 104.025 23.8636C104.868 23.8636 105.573 23.7595 106.141 23.5511C106.71 23.3428 107.14 23.054 107.434 22.6847C107.728 22.3153 107.879 21.8939 107.888 21.4205C107.879 20.9754 107.732 20.5871 107.448 20.2557C107.174 19.9148 106.719 19.6117 106.085 19.3466C105.45 19.072 104.593 18.8163 103.513 18.5795L100.616 17.9545C98.04 17.3958 96.0088 16.4631 94.522 15.1562C93.0447 13.84 92.3108 12.0455 92.3203 9.77273C92.3108 7.92614 92.8033 6.31155 93.7976 4.92898C94.8014 3.53693 96.1887 2.45265 97.9595 1.67614C99.7398 0.89962 101.781 0.511363 104.082 0.511363C106.43 0.511363 108.461 0.904355 110.175 1.69034C111.889 2.47633 113.21 3.58428 114.138 5.0142C115.076 6.43466 115.549 8.09659 115.559 10H108.002ZM118.961 30V0.90909H139.927V7.27273H126.859V12.2727H138.847V18.6364H126.859V23.6364H139.87V30H118.961ZM148.219 30.4545C147.12 30.4545 146.178 30.071 145.392 29.304C144.616 28.5275 144.232 27.5852 144.241 26.4773C144.232 25.3977 144.616 24.4744 145.392 23.7074C146.178 22.9403 147.12 22.5568 148.219 22.5568C149.26 22.5568 150.179 22.9403 150.974 23.7074C151.779 24.4744 152.187 25.3977 152.196 26.4773C152.187 27.2159 151.992 27.8883 151.614 28.4943C151.244 29.0909 150.761 29.5691 150.165 29.929C149.568 30.2794 148.92 30.4545 148.219 30.4545Z" fill="white"/>
</svg>
