<svg xmlns="http://www.w3.org/2000/svg" viewBox="0 0 1980 643.71"><defs><style>.cls-1{fill:#cdb3c1;}.cls-2{fill:#a38d9d;}.cls-3{fill:#7a697b;}.cls-4{fill:#52475a;}</style></defs><title>waves-careers</title><g id="Layer_2" data-name="Layer 2"><g id="visual"><path class="cls-1" d="M1980,116.21v248l-47.2,12.3c-47.1,12.4-141.5,37-235.8,56.9s-188.7,34.8-283,17.1-188.7-68-282.8-68.8-188.2,47.8-282.4,62.2-188.5-5.7-282.8-16-188.7-11-283-4.4-188.7,20.7-235.8,27.7l-47.2,7v-364l47.2,7.5c47.1,7.5,141.5,22.5,235.8,12.7S471.7,69.91,566,61s188.7,8.2,282.8,15,188.2,3.5,282.4-17S1319.7.91,1414,0s188.7,35.2,283,60.7,188.7,40.5,235.8,48Z"/><path class="cls-2" d="M1980,123.81v245.7l-47.1-4c-47-4.1-141.3-12.2-235.6-9s-188.8,17.8-283.2,20.4-188.6-6.5-282.8-24.2-188.4-43.6-282.6-44.3-188.4,23.9-282.8,39.8-188.8,23.1-283.2,11.4-188.5-42.3-235.6-57.8l-8-2.6L0,317.51V181.71l47.1,4.4c47,4.5,141.3,13.4,235.6,4.2s188.8-36.6,283.2-61.1,188.6-46,282.8-40.1,188.4,39.1,282.6,40.3,188.4-29.4,282.8-20.5,188.8,57.6,283.2,66.7,188.6-21.4,235.6-36.6Z"/><path class="cls-3" d="M1980,206v163.5l-47.1-4c-47-4.1-141.3-12.2-235.6-9s-188.8,17.8-283.2,20.4-188.6-6.5-282.8-24.2-188.4-43.6-282.6-44.3-188.4,23.9-282.8,39.8-188.8,23.1-283.2,11.4-188.5-42.3-235.6-57.8l-8-2.6,8-3.8c47-22.1,141.3-66.3,235.6-85.5s188.8-13.8,283.2-8,188.6,11.6,282.8,25,188.4,34.4,282.6,28.7,188.4-38.2,282.8-39.3,188.8,29.1,283.2,32.6,188.6-19.7,235.6-31.4Z"/><path class="cls-4" d="M1980,369.51v274.2l-47.1-15.3c-47-15.4-141.3-46.1-235.6-57.9s-188.8-4.5-283.2,11.4-188.6,40.6-282.8,39.8S942.9,595,848.7,577.41s-188.4-26.8-282.8-24.2-188.8,17.2-283.2,20.4-188.6-4.9-235.6-9l-47.1-4V317.51l39.1-18.3,8,2.6c47,15.4,141.3,46.1,235.6,57.9s188.9,4.5,283.3-11.4,188.6-40.6,282.8-39.8,188.4,26.7,282.6,44.3,188.4,26.8,282.8,24.2,188.8-17.2,283.2-20.4,188.6,4.9,235.6,9Z"/></g></g></svg>