<svg xmlns="http://www.w3.org/2000/svg" viewBox="0 0 1980 1103.13"><defs><style>.cls-1{fill:#cdb3c1;}.cls-2{opacity:0.6;}.cls-3{fill:#e6e6e6;}.cls-4{fill:#fff;}.cls-5{fill:#52475a;}.cls-6{opacity:0.2;isolation:isolate;}.cls-7{fill:#3f3d56;}.cls-8{fill:#ccc;}.cls-9{fill:#a38d9d;}.cls-10{fill:#7a697b;}.cls-11{fill:#f2f2f2;}.cls-12{fill:#ffb7b7;}.cls-13{fill:#2f2e41;}</style></defs><title>waves-mobile</title><g id="Layer_2" data-name="Layer 2"><g id="visual"><path class="cls-1" d="M1980,575.63v248l-47.2,12.3c-47.1,12.4-141.5,37-235.8,56.9s-188.7,34.8-283,17.1-188.7-68-282.8-68.8-188.2,47.8-282.4,62.2-188.5-5.7-282.8-16-188.7-11-283-4.4-188.7,20.7-235.8,27.7l-47.2,7v-364l47.2,7.5c47.1,7.5,141.5,22.5,235.8,12.7s188.7-44.5,283-53.4,188.7,8.2,282.8,15,188.2,3.5,282.4-17,188.5-58.1,282.8-59,188.7,35.2,283,60.7,188.7,40.5,235.8,48Z"/><g class="cls-2"><circle class="cls-3" cx="412.6" cy="283.03" r="215"/><path class="cls-4" d="M594.4,248.83a184.92,184.92,0,0,1-45.9,159.8c-1.3,1.4-2.7,2.8-4,4.2a184.93,184.93,0,0,1-207.6,39c-1.8-.8-3.5-1.6-5.3-2.5-91.9-44.7-130.1-155.5-85.3-247.3a183.73,183.73,0,0,1,30.5-44.6c1.3-1.4,2.7-2.8,4-4.2a184.93,184.93,0,0,1,207.6-39c1.8.8,3.5,1.6,5.3,2.5A184.64,184.64,0,0,1,594.4,248.83Z"/><circle class="cls-5" cx="412.6" cy="283.03" r="169"/><path class="cls-6" d="M381.9,117.23c-2.5.5-5,1-7.5,1.6,92.9-9.2,175.6,58.7,184.8,151.6a169,169,0,0,1-129.5,181.1q7.35-.75,14.7-2.1c91.7-17.2,152.1-105.6,134.9-197.3S473.6,100,381.9,117.23Z"/><path class="cls-4" d="M379.6,105a5.53,5.53,0,0,0-4.4,6.4l4.4,23.6a5.49,5.49,0,0,0,10.8-2l-4.4-23.6A5.41,5.41,0,0,0,379.6,105Z"/><path class="cls-4" d="M493.6,116.63c-1.7-.9-3.5-1.7-5.3-2.5a5.56,5.56,0,0,0-4.4,3.3l-9.6,22a5.46,5.46,0,1,0,10,4.4l9.6-22A5.11,5.11,0,0,0,493.6,116.63Z"/><path class="cls-4" d="M570.6,194.13a5.38,5.38,0,0,0-7.6-1.6h0l-20.2,13a5.49,5.49,0,1,0,6,9.2h0l20.2-13A5.47,5.47,0,0,0,570.6,194.13Z"/><path class="cls-4" d="M302.9,171.63l-16.9-17a5.47,5.47,0,0,0-5.3-1.4c-1.4,1.4-2.7,2.8-4,4.2a5.46,5.46,0,0,0,1.5,5l16.9,17a5.52,5.52,0,1,0,7.8-7.8Z"/><path class="cls-4" d="M263.1,258.13l-23.5-4.8a5.51,5.51,0,0,0-2.2,10.8l23.5,4.8a5.51,5.51,0,1,0,2.2-10.8Z"/><path class="cls-4" d="M440.1,426.33a5.53,5.53,0,0,0-4.4,6.4l4.4,23.6a5.49,5.49,0,0,0,10.8-2l-4.4-23.6A5.61,5.61,0,0,0,440.1,426.33Z"/><path class="cls-4" d="M547,403.53l-16.9-17a5.52,5.52,0,0,0-7.8,7.8l16.9,17a5.47,5.47,0,0,0,5.3,1.4c1.4-1.4,2.7-2.8,4-4.2A5.46,5.46,0,0,0,547,403.53Z"/><path class="cls-4" d="M587.8,301.83,564.3,297a5.51,5.51,0,1,0-2.2,10.8h0l23.5,4.8a5.51,5.51,0,0,0,2.2-10.8Z"/><path class="cls-4" d="M348,419.33a5.51,5.51,0,0,0-7.2,2.8l-9.6,22a5.62,5.62,0,0,0,.4,5.2c1.7.9,3.5,1.7,5.3,2.5a5.56,5.56,0,0,0,4.4-3.3l9.6-22a5.47,5.47,0,0,0-2.9-7.2Z"/><path class="cls-4" d="M284,352.83a5.38,5.38,0,0,0-7.6-1.6h0l-20.2,13a5.49,5.49,0,1,0,6,9.2l20.2-13A5.56,5.56,0,0,0,284,352.83Z"/><path class="cls-7" d="M419.6,278.93a11.48,11.48,0,0,1-6.8,14.8L320,328a11.52,11.52,0,1,1-8-21.6L404.8,272A11.61,11.61,0,0,1,419.6,278.93Z"/><path class="cls-7" d="M540.5,366.13a7.53,7.53,0,0,1-10.4,2l-122.5-83a7.49,7.49,0,0,1,8.4-12.4l122.5,83A7.37,7.37,0,0,1,540.5,366.13Z"/><circle class="cls-8" cx="412.6" cy="283.03" r="13"/><path class="cls-3" d="M282.9,78c-13.8,34.5-39.9,60.6-74.3,81a7,7,0,0,1-10,.4h0c-25.1-23-27.7-62.1-5.1-87.5a62,62,0,0,1,87.6-5.1l.6.6.7.6A6.92,6.92,0,0,1,282.9,78Z"/><path class="cls-3" d="M456.1,34.63a62.07,62.07,0,0,1,83.1-28.2,2.51,2.51,0,0,1,.7.4c30.3,15.5,42,52.9,27,83.4h0a7,7,0,0,1-9.4,3.2h0c-36.7-6.7-69.1-24.1-98.6-48.5a7,7,0,0,1-3.2-9.4Z"/><path class="cls-3" d="M525.6,451.23a5.52,5.52,0,0,0-.7,7.7l41.7,49.9a5.47,5.47,0,1,0,8.4-7l-41.7-49.9A5.51,5.51,0,0,0,525.6,451.23Z"/><path class="cls-3" d="M361.5,484.23l-20.7,61.6a5.53,5.53,0,0,0,10.5,3.5l20.7-61.6a5.52,5.52,0,0,0-3.5-7,5.69,5.69,0,0,0-7,3.5Z"/><circle class="cls-3" cx="572.4" cy="505.23" r="17"/><circle class="cls-3" cx="503.8" cy="75.53" r="17"/><circle class="cls-3" cx="369.7" cy="60.03" r="17"/><circle class="cls-3" cx="255.8" cy="120.12" r="17" transform="translate(30.69 290.96) rotate(-62.35)"/><circle class="cls-3" cx="347.4" cy="547.63" r="17"/></g><path class="cls-9" d="M1980,583.23v245.7l-47.1-4c-47-4.1-141.3-12.2-235.6-9s-188.8,17.8-283.2,20.4-188.6-6.5-282.8-24.2-188.4-43.6-282.6-44.3-188.4,23.9-282.8,39.8S377.1,830.73,282.7,819s-188.5-42.3-235.6-57.8l-8-2.6L0,776.93V641.13l47.1,4.4c47,4.5,141.3,13.4,235.6,4.2s188.8-36.6,283.2-61.1,188.6-46,282.8-40.1,188.4,39.1,282.6,40.3,188.4-29.4,282.8-20.5,188.8,57.6,283.2,66.7,188.6-21.4,235.6-36.6Z"/><path class="cls-10" d="M1980,665.43v163.5l-47.1-4c-47-4.1-141.3-12.2-235.6-9s-188.8,17.8-283.2,20.4-188.6-6.5-282.8-24.2-188.4-43.6-282.6-44.3-188.4,23.9-282.8,39.8S377.1,830.73,282.7,819s-188.5-42.3-235.6-57.8l-8-2.6,8-3.8c47-22.1,141.3-66.3,235.6-85.5s188.8-13.8,283.2-8,188.6,11.6,282.8,25,188.4,34.4,282.6,28.7,188.4-38.2,282.8-39.3,188.8,29.1,283.2,32.6,188.6-19.7,235.6-31.4Z"/><path class="cls-5" d="M1980,828.93v274.2l-47.1-15.3c-47-15.4-141.3-46.1-235.6-57.9s-188.8-4.5-283.2,11.4-188.6,40.6-282.8,39.8-188.4-26.7-282.6-44.3-188.4-26.8-282.8-24.2-188.8,17.2-283.2,20.4-188.6-4.9-235.6-9L0,1020V776.93l39.1-18.3,8,2.6c47,15.4,141.3,46.1,235.6,57.9s188.9,4.5,283.3-11.4,188.6-40.6,282.8-39.8,188.4,26.7,282.6,44.3,188.4,26.8,282.8,24.2,188.8-17.2,283.2-20.4,188.6,4.9,235.6,9Z"/><g class="cls-2"><path class="cls-11" d="M840.8,468.53l30.7,1.2a98.14,98.14,0,0,0,15.5-45c-19.9,20.6-54.5,14.9-80.1,27.8a59.72,59.72,0,0,0-31.1,41.2L763,511.23A100,100,0,0,0,845.3,497a98.83,98.83,0,0,0,17.9-16.3A250.41,250.41,0,0,1,840.8,468.53Z"/><path class="cls-11" d="M824.5,421.63l28-12.6a98.75,98.75,0,0,0-6.2-47.2c-8.6,27.3-42.1,37.6-59.2,60.6a59.22,59.22,0,0,0-9.4,50.7l-3.7,21.4a99.56,99.56,0,0,0,67.3-49.4,96.19,96.19,0,0,0,8.7-22.5C837.5,422.83,824.5,421.63,824.5,421.63Z"/><path class="cls-12" d="M584.9,370.63a8.55,8.55,0,0,0,12,1.2c.4-.3.7-.7,1.1-1l28.1,11.1-3.2-15.4-26.2-8.2a8.6,8.6,0,0,0-12,1.7,8.3,8.3,0,0,0,.2,10.6Z"/><path class="cls-7" d="M604.8,373.83l8.7-15.5,52.8,17.8,60.9-18.9a21.52,21.52,0,0,1,26.9,14.1,17.18,17.18,0,0,1,.8,3.8h0a21.4,21.4,0,0,1-18.8,23.8l-71.3,8.4Z"/><polygon class="cls-12" points="617.6 623.23 606.5 619.43 615.8 573.83 632.2 579.53 617.6 623.23"/><path class="cls-12" d="M687.2,608c-.7.6-1.4,1.1-2.1,1.7-1.4,1.1-2.9,2.2-4.3,3.3l-2.2,1.6h0l-1.2.4-2.2-4.3-1-2-1.5-2.8-2.7-5.1-14-27.1,16.2-6.1.9,2.5h0l.5,1.2,8.6,23L684,599l.1.1,1.1,2.8.9,2.4,1,2.7Z"/><path class="cls-13" d="M775.1,496.93c-.9,1.8-1.7,3.6-2.6,5.4-1.7,3.4-3.4,6.7-5.2,9.9h0a24.4,24.4,0,0,1-3.7,3.5c-.1.1-.1.1-.2.1a17.4,17.4,0,0,1-3.3,1.8c-.4.2-.8.3-1.3.5-1.5.6-3,1-4.5,1.5a77.93,77.93,0,0,1-8,2c-.2,0-.4.1-.6.1-10.9,2.1-21.8,2-33.3,1.2-5.7-.4-11.5-1-17.5-1.6l-5.9-.6h-.5c-2.8-.3-5.7-.6-8.7-.8-3.7-.3-7.6-.6-11.6-.8l.9,5.5a43,43,0,0,0,4,12.1c2.2,4.7,4,8.4,2.2,16.7l-.9,4a13.13,13.13,0,0,1,0,11.9l-.2.4,14.5,27,.9,1.8-5.7.7-7.1.8-12,1.4-21.3-32.6-1-1.6v-.1l-6-66.7c0-.6-.1-1.2-.1-1.8a20.19,20.19,0,0,1,6.1-14.5,19.83,19.83,0,0,1,14-5.7l6,.1,12.2.2,8.6.1h.2l25.4.3.9-7.5.3-.2,10.1-5.1,34.9-17.6h.1l2.3-1.2.3.4c.1.1.2.3.3.4a69.67,69.67,0,0,1,7.3,12.7,203.31,203.31,0,0,1,8.7,22.4l.3.9v.1a.35.35,0,0,0,.1.2C776.3,488.23,776.2,492.53,775.1,496.93Z"/><path class="cls-13" d="M773.8,472.33c-.2-.5-.4-1-.6-1.4-1.7-3.5-3.5-7-5.5-10.3-2.3-3.8-5-7.8-8.1-12.2-1.5-2.1-3.1-4.3-4.9-6.6-.9-1.1-1.8-2.3-2.7-3.5,0-.1-.1-.1-.1-.2l-.3-.3-35.5,9-13.2,3.4v8.5h0v4.6h0v6.1h-.1l-20.2-.3-20.9-.3-11.2-.1a19.41,19.41,0,0,0-14,5.7,20.19,20.19,0,0,0-6.1,14.5,10.28,10.28,0,0,0,.1,1.7l-7.5,25.9a160.52,160.52,0,0,0-6.4,47.7l-4.8,25.3h1.1l16.4-.4,4.3-.1,7.8-14.8c.9-1.7,1.7-3.4,2.5-5.2a92.52,92.52,0,0,0,3.2-8.8l14.7-50.8c1.6.1,3.2.2,4.8.2,7.3.3,14.2.5,20.9.4,21.6-.1,40.1-2.1,56.4-6,4.6-1.1,8.9-2.4,13.1-3.8,1.5-.5,3.1-1.1,4.6-1.6a10.37,10.37,0,0,0,1-.4,19.88,19.88,0,0,0,12.3-14.5A24.36,24.36,0,0,0,773.8,472.33Z"/><path class="cls-13" d="M620.1,615.73l-12-4.1-1.9-.6-2,7.3L584.8,625a4.68,4.68,0,0,0-2.9,6,4.59,4.59,0,0,0,3.2,3l20.3,5.7,5.5-6.3-.6,7.6,7.7,2.1,5-26.5Z"/><polygon class="cls-13" points="688.7 596.83 689.7 598.53 688.9 598.63 688.7 596.83"/><path class="cls-13" d="M685,599.53,673.6,605l-1.8.9,3.7,6.6-9.1,18.4a4.73,4.73,0,0,0,2.2,6.4,4.58,4.58,0,0,0,4.4-.1l18.4-10.3-.5-8.3,4.9,5.9,6.9-3.9-15-22.3Z"/><path class="cls-7" d="M772.1,483.83a3.86,3.86,0,0,1-2.1-.3L703.3,458l-1.1-2.9-2.5-9.2v-.1l2.8-28.3a9.82,9.82,0,0,0-.7-1c-3.2-4.2-12.9-17,.4-37.8l23.5-34.9,23.2-3.7.3.3a61.21,61.21,0,0,1,16.9,55.3l2.7,44.2,3.6,8.6a24.77,24.77,0,0,1,1.1,15.9l2.3,14.3a4.49,4.49,0,0,1-3.7,5.1Z"/><path class="cls-12" d="M721.8,526.33a8.46,8.46,0,0,0,1.6-11.9,5.24,5.24,0,0,0-1-1.1l12.1-27.7-15.5,2.7-9.1,25.9a8.54,8.54,0,0,0,11.9,12.1Z"/><path class="cls-7" d="M725.7,506.53l-15.2-9.3,19.7-52.1-16.8-61.5a21.55,21.55,0,0,1,15.1-26.4,26.62,26.62,0,0,1,3.9-.7h0a21.5,21.5,0,0,1,23.2,19.6l5.9,71.6Z"/><path id="f4e08e8b-ef08-4d70-8ad3-b81af8a71ff9-53" class="cls-13" d="M709.3,332.43l-2.7-23.1a31.16,31.16,0,0,1,61.9-7.3h0c6.8,10.7,4,16.5,2.7,23.1a4.1,4.1,0,0,1-3.7,4.6l-53.6,6.2A3.94,3.94,0,0,1,709.3,332.43Z"/><circle class="cls-12" cx="727.8" cy="309.53" r="23.3"/><path class="cls-13" d="M752.7,312.73h-.6c-3.7-.2-7.4-.4-11.1-.7l-1.3-8.1-3.5,7.8c-9.6,4.5-19.1,3.7-28.4.6a69.5,69.5,0,0,1-8.9-3.7,30.64,30.64,0,0,1,12.6-23.5l.9-.6h0c.5-.3,1.1-.7,1.6-1a25.47,25.47,0,0,1,27.4,2.1C749.3,291.53,753.7,302.33,752.7,312.73Z"/></g></g></g></svg>